# xmcd
#
# Track frame offsets:
# 150
# 18519
# 38284
# 54657
# 75029
# 91446
# 105935
# 124245
# 136601
# 153918
# 172297
#
# Disc length: 2533 seconds
#
# Revision: 1
# Processed by: cddbd v1.5.2PL0 Copyright (c) Steve Scherf et al.
# Submitted via: CedeCatalogueitor 2.6.0.6 http://personales.ya.com/cdcatalogueitor
#
DISCID=7609e30b
DTITLE=Cápsula - Songs and Circuits
DYEAR=1900
DGENRE=
TTITLE0=A
TTITLE1=D
TTITLE2=G
TTITLE3=A
TTITLE4=S
TTITLE5=D
TTITLE6=D
TTITLE7=A
TTITLE8=G
TTITLE9=A
TTITLE10=Dada
EXTD=
EXTT0=
EXTT1=
EXTT2=
EXTT3=
EXTT4=
EXTT5=
EXTT6=
EXTT7=
EXTT8=
EXTT9=
EXTT10=
PLAYORDER=
